<?xml version="1.0" standalone="no"?><svg xmlns:xlink="http://www.w3.org/1999/xlink" xmlns="http://www.w3.org/2000/svg" viewBox="0 0 1000 1300.0027083389757" preserveAspectRatio="xMaxYMax slice"><g transform="scale(1.2896852265267615)"><rect x="0" y="0" width="775.3846153846154" height="1085.5384615384614" fill="#000000"/><g transform="translate(0,0) scale(3.8770000000000002) rotate(0)"><path d="M10 5L5 0L0 5L5 10L0 15L5 20L10 15L15 20L20 15L15 10L20 5L15 0L10 5Z" fill="#030805"/></g><g transform="translate(77.54,0) scale(3.8770000000000002) rotate(0)"><path d="M10 5L5 0L0 5L5 10L0 15L5 20L10 15L15 20L20 15L15 10L20 5L15 0L10 5Z" fill="#5a0057"/></g><g transform="translate(155.08,0) scale(3.8770000000000002) rotate(0)"><path d="M10 5L5 0L0 5L5 10L0 15L5 20L10 15L15 20L20 15L15 10L20 5L15 0L10 5Z" fill="#327c47"/></g><rect x="232.61538461538458" y="0" width="77.53846153846153" height="77.53846153846153" fill="#000000"/><g transform="translate(232.62,0) scale(1.9385000000000001) rotate(0)"><path d="M10 5L5 0L0 5L5 10L0 15L5 20L10 15L15 20L20 15L15 10L20 5L15 0L10 5Z" fill="#317945"/></g><g transform="translate(271.38,0) scale(1.9385000000000001) rotate(0)"><path d="M10 5L5 0L0 5L5 10L0 15L5 20L10 15L15 20L20 15L15 10L20 5L15 0L10 5Z" fill="#5ce282"/></g><g transform="translate(232.62,38.77) scale(1.9385000000000001) rotate(0)"><path d="M10 5L5 0L0 5L5 10L0 15L5 20L10 15L15 20L20 15L15 10L20 5L15 0L10 5Z" fill="#307744"/></g><g transform="translate(271.38,38.77) scale(1.9385000000000001) rotate(0)"><path d="M10 5L5 0L0 5L5 10L0 15L5 20L10 15L15 20L20 15L15 10L20 5L15 0L10 5Z" fill="#840080"/></g><g transform="translate(310.15,0) scale(3.8770000000000002) rotate(0)"><path d="M10 5L5 0L0 5L5 10L0 15L5 20L10 15L15 20L20 15L15 10L20 5L15 0L10 5Z" fill="#0e2213"/></g><rect x="387.6923076923077" y="0" width="77.53846153846153" height="77.53846153846153" fill="#000000"/><g transform="translate(387.69,0) scale(1.9385000000000001) rotate(0)"><path d="M10 5L5 0L0 5L5 10L0 15L5 20L10 15L15 20L20 15L15 10L20 5L15 0L10 5Z" fill="#2b002a"/></g><g transform="translate(426.46,0) scale(1.9385000000000001) rotate(0)"><path d="M10 5L5 0L0 5L5 10L0 15L5 20L10 15L15 20L20 15L15 10L20 5L15 0L10 5Z" fill="#122c19"/></g><g transform="translate(387.69,38.77) scale(1.9385000000000001) rotate(0)"><path d="M10 5L5 0L0 5L5 10L0 15L5 20L10 15L15 20L20 15L15 10L20 5L15 0L10 5Z" fill="#020503"/></g><g transform="translate(426.46,38.77) scale(1.9385000000000001) rotate(0)"><path d="M10 5L5 0L0 5L5 10L0 15L5 20L10 15L15 20L20 15L15 10L20 5L15 0L10 5Z" fill="#160016"/></g><g transform="translate(465.23,0) scale(3.8770000000000002) rotate(0)"><path d="M10 5L5 0L0 5L5 10L0 15L5 20L10 15L15 20L20 15L15 10L20 5L15 0L10 5Z" fill="#163720"/></g><g transform="translate(542.77,0) scale(3.8770000000000002) rotate(0)"><path d="M10 5L5 0L0 5L5 10L0 15L5 20L10 15L15 20L20 15L15 10L20 5L15 0L10 5Z" fill="#6a0067"/></g><g transform="translate(620.31,0) scale(3.8770000000000002) rotate(0)"><path d="M10 5L5 0L0 5L5 10L0 15L5 20L10 15L15 20L20 15L15 10L20 5L15 0L10 5Z" fill="#000000"/></g><rect x="697.8461538461538" y="0" width="77.53846153846153" height="77.53846153846153" fill="#000000"/><g transform="translate(697.85,0) scale(1.9385000000000001) rotate(0)"><path d="M10 5L5 0L0 5L5 10L0 15L5 20L10 15L15 20L20 15L15 10L20 5L15 0L10 5Z" fill="#470044"/></g><g transform="translate(736.62,0) scale(1.9385000000000001) rotate(0)"><path d="M10 5L5 0L0 5L5 10L0 15L5 20L10 15L15 20L20 15L15 10L20 5L15 0L10 5Z" fill="#8a0086"/></g><g transform="translate(697.85,38.77) scale(1.9385000000000001) rotate(0)"><path d="M10 5L5 0L0 5L5 10L0 15L5 20L10 15L15 20L20 15L15 10L20 5L15 0L10 5Z" fill="#52ca74"/></g><g transform="translate(736.62,38.77) scale(1.9385000000000001) rotate(0)"><path d="M10 5L5 0L0 5L5 10L0 15L5 20L10 15L15 20L20 15L15 10L20 5L15 0L10 5Z" fill="#4cbb6b"/></g><rect x="0" y="77.53846153846153" width="77.53846153846153" height="77.53846153846153" fill="#000000"/><g transform="translate(0,77.54) scale(1.9385000000000001) rotate(0)"><path d="M10 5L5 0L0 5L5 10L0 15L5 20L10 15L15 20L20 15L15 10L20 5L15 0L10 5Z" fill="#2d002b"/></g><g transform="translate(38.77,77.54) scale(1.9385000000000001) rotate(0)"><path d="M10 5L5 0L0 5L5 10L0 15L5 20L10 15L15 20L20 15L15 10L20 5L15 0L10 5Z" fill="#030804"/></g><g transform="translate(0,116.31) scale(1.9385000000000001) rotate(0)"><path d="M10 5L5 0L0 5L5 10L0 15L5 20L10 15L15 20L20 15L15 10L20 5L15 0L10 5Z" fill="#92008d"/></g><g transform="translate(38.77,116.31) scale(1.9385000000000001) rotate(0)"><path d="M10 5L5 0L0 5L5 10L0 15L5 20L10 15L15 20L20 15L15 10L20 5L15 0L10 5Z" fill="#71006d"/></g><g transform="translate(77.54,77.54) scale(3.8770000000000002) rotate(0)"><path d="M10 5L5 0L0 5L5 10L0 15L5 20L10 15L15 20L20 15L15 10L20 5L15 0L10 5Z" fill="#9a0095"/></g><rect x="155.07692307692307" y="77.53846153846153" width="77.53846153846153" height="77.53846153846153" fill="#000000"/><g transform="translate(155.08,77.54) scale(1.9385000000000001) rotate(0)"><path d="M10 5L5 0L0 5L5 10L0 15L5 20L10 15L15 20L20 15L15 10L20 5L15 0L10 5Z" fill="#7a0076"/></g><g transform="translate(193.85,77.54) scale(1.9385000000000001) rotate(0)"><path d="M10 5L5 0L0 5L5 10L0 15L5 20L10 15L15 20L20 15L15 10L20 5L15 0L10 5Z" fill="#060f09"/></g><g transform="translate(155.08,116.31) scale(1.9385000000000001) rotate(0)"><path d="M10 5L5 0L0 5L5 10L0 15L5 20L10 15L15 20L20 15L15 10L20 5L15 0L10 5Z" fill="#1c001b"/></g><g transform="translate(193.85,116.31) scale(1.9385000000000001) rotate(0)"><path d="M10 5L5 0L0 5L5 10L0 15L5 20L10 15L15 20L20 15L15 10L20 5L15 0L10 5Z" fill="#f600ee"/></g><g transform="translate(232.62,77.54) scale(3.8770000000000002) rotate(0)"><path d="M10 5L5 0L0 5L5 10L0 15L5 20L10 15L15 20L20 15L15 10L20 5L15 0L10 5Z" fill="#16351f"/></g><g transform="translate(310.15,77.54) scale(3.8770000000000002) rotate(0)"><path d="M10 5L5 0L0 5L5 10L0 15L5 20L10 15L15 20L20 15L15 10L20 5L15 0L10 5Z" fill="#43a55f"/></g><g transform="translate(387.69,77.54) scale(3.8770000000000002) rotate(0)"><path d="M10 5L5 0L0 5L5 10L0 15L5 20L10 15L15 20L20 15L15 10L20 5L15 0L10 5Z" fill="#580055"/></g><rect x="465.23076923076917" y="77.53846153846153" width="77.53846153846153" height="77.53846153846153" fill="#000000"/><g transform="translate(465.23,77.54) scale(1.9385000000000001) rotate(0)"><path d="M10 5L5 0L0 5L5 10L0 15L5 20L10 15L15 20L20 15L15 10L20 5L15 0L10 5Z" fill="#49b367"/></g><g transform="translate(504,77.54) scale(1.9385000000000001) rotate(0)"><path d="M10 5L5 0L0 5L5 10L0 15L5 20L10 15L15 20L20 15L15 10L20 5L15 0L10 5Z" fill="#220021"/></g><g transform="translate(465.23,116.31) scale(1.9385000000000001) rotate(0)"><path d="M10 5L5 0L0 5L5 10L0 15L5 20L10 15L15 20L20 15L15 10L20 5L15 0L10 5Z" fill="#160015"/></g><g transform="translate(504,116.31) scale(1.9385000000000001) rotate(0)"><path d="M10 5L5 0L0 5L5 10L0 15L5 20L10 15L15 20L20 15L15 10L20 5L15 0L10 5Z" fill="#35824a"/></g><g transform="translate(542.77,77.54) scale(3.8770000000000002) rotate(0)"><path d="M10 5L5 0L0 5L5 10L0 15L5 20L10 15L15 20L20 15L15 10L20 5L15 0L10 5Z" fill="#36854c"/></g><rect x="620.3076923076923" y="77.53846153846153" width="77.53846153846153" height="77.53846153846153" fill="#000000"/><g transform="translate(620.31,77.54) scale(1.9385000000000001) rotate(0)"><path d="M10 5L5 0L0 5L5 10L0 15L5 20L10 15L15 20L20 15L15 10L20 5L15 0L10 5Z" fill="#2f7443"/></g><g transform="translate(659.08,77.54) scale(1.9385000000000001) rotate(0)"><path d="M10 5L5 0L0 5L5 10L0 15L5 20L10 15L15 20L20 15L15 10L20 5L15 0L10 5Z" fill="#130013"/></g><g transform="translate(620.31,116.31) scale(1.9385000000000001) rotate(0)"><path d="M10 5L5 0L0 5L5 10L0 15L5 20L10 15L15 20L20 15L15 10L20 5L15 0L10 5Z" fill="#46ad63"/></g><g transform="translate(659.08,116.31) scale(1.9385000000000001) rotate(0)"><path d="M10 5L5 0L0 5L5 10L0 15L5 20L10 15L15 20L20 15L15 10L20 5L15 0L10 5Z" fill="#45aa61"/></g><g transform="translate(697.85,77.54) scale(3.8770000000000002) rotate(0)"><path d="M10 5L5 0L0 5L5 10L0 15L5 20L10 15L15 20L20 15L15 10L20 5L15 0L10 5Z" fill="#190018"/></g><g transform="translate(0,155.08) scale(3.8770000000000002) rotate(0)"><path d="M10 5L5 0L0 5L5 10L0 15L5 20L10 15L15 20L20 15L15 10L20 5L15 0L10 5Z" fill="#c400be"/></g><rect x="77.53846153846153" y="155.07692307692307" width="77.53846153846153" height="77.53846153846153" fill="#000000"/><g transform="translate(77.54,155.08) scale(1.9385000000000001) rotate(0)"><path d="M10 5L5 0L0 5L5 10L0 15L5 20L10 15L15 20L20 15L15 10L20 5L15 0L10 5Z" fill="#760072"/></g><g transform="translate(116.31,155.08) scale(1.9385000000000001) rotate(0)"><path d="M10 5L5 0L0 5L5 10L0 15L5 20L10 15L15 20L20 15L15 10L20 5L15 0L10 5Z" fill="#dd00d6"/></g><g transform="translate(77.54,193.85) scale(1.9385000000000001) rotate(0)"><path d="M10 5L5 0L0 5L5 10L0 15L5 20L10 15L15 20L20 15L15 10L20 5L15 0L10 5Z" fill="#0a190e"/></g><g transform="translate(116.31,193.85) scale(1.9385000000000001) rotate(0)"><path d="M10 5L5 0L0 5L5 10L0 15L5 20L10 15L15 20L20 15L15 10L20 5L15 0L10 5Z" fill="#56d379"/></g><rect x="155.07692307692307" y="155.07692307692307" width="77.53846153846153" height="77.53846153846153" fill="#000000"/><g transform="translate(155.08,155.08) scale(1.9385000000000001) rotate(0)"><path d="M10 5L5 0L0 5L5 10L0 15L5 20L10 15L15 20L20 15L15 10L20 5L15 0L10 5Z" fill="#c200bc"/></g><g transform="translate(193.85,155.08) scale(1.9385000000000001) rotate(0)"><path d="M10 5L5 0L0 5L5 10L0 15L5 20L10 15L15 20L20 15L15 10L20 5L15 0L10 5Z" fill="#ef00e8"/></g><g transform="translate(155.08,193.85) scale(1.9385000000000001) rotate(0)"><path d="M10 5L5 0L0 5L5 10L0 15L5 20L10 15L15 20L20 15L15 10L20 5L15 0L10 5Z" fill="#760072"/></g><g transform="translate(193.85,193.85) scale(1.9385000000000001) rotate(0)"><path d="M10 5L5 0L0 5L5 10L0 15L5 20L10 15L15 20L20 15L15 10L20 5L15 0L10 5Z" fill="#2d6f3f"/></g><rect x="232.61538461538458" y="155.07692307692307" width="77.53846153846153" height="77.53846153846153" fill="#000000"/><g transform="translate(232.62,155.08) scale(1.9385000000000001) rotate(0)"><path d="M10 5L5 0L0 5L5 10L0 15L5 20L10 15L15 20L20 15L15 10L20 5L15 0L10 5Z" fill="#270026"/></g><g transform="translate(271.38,155.08) scale(1.9385000000000001) rotate(0)"><path d="M10 5L5 0L0 5L5 10L0 15L5 20L10 15L15 20L20 15L15 10L20 5L15 0L10 5Z" fill="#55d178"/></g><g transform="translate(232.62,193.85) scale(1.9385000000000001) rotate(0)"><path d="M10 5L5 0L0 5L5 10L0 15L5 20L10 15L15 20L20 15L15 10L20 5L15 0L10 5Z" fill="#3f9b59"/></g><g transform="translate(271.38,193.85) scale(1.9385000000000001) rotate(0)"><path d="M10 5L5 0L0 5L5 10L0 15L5 20L10 15L15 20L20 15L15 10L20 5L15 0L10 5Z" fill="#420040"/></g><rect x="310.15384615384613" y="155.07692307692307" width="77.53846153846153" height="77.53846153846153" fill="#000000"/><g transform="translate(310.15,155.08) scale(1.9385000000000001) rotate(0)"><path d="M10 5L5 0L0 5L5 10L0 15L5 20L10 15L15 20L20 15L15 10L20 5L15 0L10 5Z" fill="#8f008a"/></g><g transform="translate(348.92,155.08) scale(1.9385000000000001) rotate(0)"><path d="M10 5L5 0L0 5L5 10L0 15L5 20L10 15L15 20L20 15L15 10L20 5L15 0L10 5Z" fill="#0f2616"/></g><g transform="translate(310.15,193.85) scale(1.9385000000000001) rotate(0)"><path d="M10 5L5 0L0 5L5 10L0 15L5 20L10 15L15 20L20 15L15 10L20 5L15 0L10 5Z" fill="#cc00c6"/></g><g transform="translate(348.92,193.85) scale(1.9385000000000001) rotate(0)"><path d="M10 5L5 0L0 5L5 10L0 15L5 20L10 15L15 20L20 15L15 10L20 5L15 0L10 5Z" fill="#cd00c6"/></g><rect x="387.6923076923077" y="155.07692307692307" width="77.53846153846153" height="77.53846153846153" fill="#000000"/><g transform="translate(387.69,155.08) scale(1.9385000000000001) rotate(0)"><path d="M10 5L5 0L0 5L5 10L0 15L5 20L10 15L15 20L20 15L15 10L20 5L15 0L10 5Z" fill="#5ee684"/></g><g transform="translate(426.46,155.08) scale(1.9385000000000001) rotate(0)"><path d="M10 5L5 0L0 5L5 10L0 15L5 20L10 15L15 20L20 15L15 10L20 5L15 0L10 5Z" fill="#193c23"/></g><g transform="translate(387.69,193.85) scale(1.9385000000000001) rotate(0)"><path d="M10 5L5 0L0 5L5 10L0 15L5 20L10 15L15 20L20 15L15 10L20 5L15 0L10 5Z" fill="#060e08"/></g><g transform="translate(426.46,193.85) scale(1.9385000000000001) rotate(0)"><path d="M10 5L5 0L0 5L5 10L0 15L5 20L10 15L15 20L20 15L15 10L20 5L15 0L10 5Z" fill="#060f09"/></g><rect x="465.23076923076917" y="155.07692307692307" width="77.53846153846153" height="77.53846153846153" fill="#000000"/><g transform="translate(465.23,155.08) scale(1.9385000000000001) rotate(0)"><path d="M10 5L5 0L0 5L5 10L0 15L5 20L10 15L15 20L20 15L15 10L20 5L15 0L10 5Z" fill="#1a4025"/></g><g transform="translate(504,155.08) scale(1.9385000000000001) rotate(0)"><path d="M10 5L5 0L0 5L5 10L0 15L5 20L10 15L15 20L20 15L15 10L20 5L15 0L10 5Z" fill="#5b0058"/></g><g transform="translate(465.23,193.85) scale(1.9385000000000001) rotate(0)"><path d="M10 5L5 0L0 5L5 10L0 15L5 20L10 15L15 20L20 15L15 10L20 5L15 0L10 5Z" fill="#ad00a7"/></g><g transform="translate(504,193.85) scale(1.9385000000000001) rotate(0)"><path d="M10 5L5 0L0 5L5 10L0 15L5 20L10 15L15 20L20 15L15 10L20 5L15 0L10 5Z" fill="#0e000e"/></g><g transform="translate(542.77,155.08) scale(3.8770000000000002) rotate(0)"><path d="M10 5L5 0L0 5L5 10L0 15L5 20L10 15L15 20L20 15L15 10L20 5L15 0L10 5Z" fill="#e100d9"/></g><g transform="translate(620.31,155.08) scale(3.8770000000000002) rotate(0)"><path d="M10 5L5 0L0 5L5 10L0 15L5 20L10 15L15 20L20 15L15 10L20 5L15 0L10 5Z" fill="#57d77b"/></g><g transform="translate(697.85,155.08) scale(3.8770000000000002) rotate(0)"><path d="M10 5L5 0L0 5L5 10L0 15L5 20L10 15L15 20L20 15L15 10L20 5L15 0L10 5Z" fill="#9f009a"/></g><g transform="translate(0,232.62) scale(3.8770000000000002) rotate(0)"><path d="M10 5L5 0L0 5L5 10L0 15L5 20L10 15L15 20L20 15L15 10L20 5L15 0L10 5Z" fill="#580055"/></g><g transform="translate(77.54,232.62) scale(3.8770000000000002) rotate(0)"><path d="M10 5L5 0L0 5L5 10L0 15L5 20L10 15L15 20L20 15L15 10L20 5L15 0L10 5Z" fill="#348049"/></g><g transform="translate(155.08,232.62) scale(3.8770000000000002) rotate(0)"><path d="M10 5L5 0L0 5L5 10L0 15L5 20L10 15L15 20L20 15L15 10L20 5L15 0L10 5Z" fill="#a0009a"/></g><rect x="232.61538461538458" y="232.61538461538458" width="77.53846153846153" height="77.53846153846153" fill="#000000"/><g transform="translate(232.62,232.62) scale(1.9385000000000001) rotate(0)"><path d="M10 5L5 0L0 5L5 10L0 15L5 20L10 15L15 20L20 15L15 10L20 5L15 0L10 5Z" fill="#0c1d10"/></g><g transform="translate(271.38,232.62) scale(1.9385000000000001) rotate(0)"><path d="M10 5L5 0L0 5L5 10L0 15L5 20L10 15L15 20L20 15L15 10L20 5L15 0L10 5Z" fill="#4ab668"/></g><g transform="translate(232.62,271.38) scale(1.9385000000000001) rotate(0)"><path d="M10 5L5 0L0 5L5 10L0 15L5 20L10 15L15 20L20 15L15 10L20 5L15 0L10 5Z" fill="#080008"/></g><g transform="translate(271.38,271.38) scale(1.9385000000000001) rotate(0)"><path d="M10 5L5 0L0 5L5 10L0 15L5 20L10 15L15 20L20 15L15 10L20 5L15 0L10 5Z" fill="#160015"/></g><g transform="translate(310.15,232.62) scale(3.8770000000000002) rotate(0)"><path d="M10 5L5 0L0 5L5 10L0 15L5 20L10 15L15 20L20 15L15 10L20 5L15 0L10 5Z" fill="#490047"/></g><g transform="translate(387.69,232.62) scale(3.8770000000000002) rotate(0)"><path d="M10 5L5 0L0 5L5 10L0 15L5 20L10 15L15 20L20 15L15 10L20 5L15 0L10 5Z" fill="#590056"/></g><g transform="translate(465.23,232.62) scale(3.8770000000000002) rotate(0)"><path d="M10 5L5 0L0 5L5 10L0 15L5 20L10 15L15 20L20 15L15 10L20 5L15 0L10 5Z" fill="#cf00c8"/></g><rect x="542.7692307692307" y="232.61538461538458" width="77.53846153846153" height="77.53846153846153" fill="#000000"/><g transform="translate(542.77,232.62) scale(1.9385000000000001) rotate(0)"><path d="M10 5L5 0L0 5L5 10L0 15L5 20L10 15L15 20L20 15L15 10L20 5L15 0L10 5Z" fill="#4fc26f"/></g><g transform="translate(581.54,232.62) scale(1.9385000000000001) rotate(0)"><path d="M10 5L5 0L0 5L5 10L0 15L5 20L10 15L15 20L20 15L15 10L20 5L15 0L10 5Z" fill="#57d67b"/></g><g transform="translate(542.77,271.38) scale(1.9385000000000001) rotate(0)"><path d="M10 5L5 0L0 5L5 10L0 15L5 20L10 15L15 20L20 15L15 10L20 5L15 0L10 5Z" fill="#42a25d"/></g><g transform="translate(581.54,271.38) scale(1.9385000000000001) rotate(0)"><path d="M10 5L5 0L0 5L5 10L0 15L5 20L10 15L15 20L20 15L15 10L20 5L15 0L10 5Z" fill="#5be080"/></g><rect x="620.3076923076923" y="232.61538461538458" width="77.53846153846153" height="77.53846153846153" fill="#000000"/><g transform="translate(620.31,232.62) scale(1.9385000000000001) rotate(0)"><path d="M10 5L5 0L0 5L5 10L0 15L5 20L10 15L15 20L20 15L15 10L20 5L15 0L10 5Z" fill="#2a663b"/></g><g transform="translate(659.08,232.62) scale(1.9385000000000001) rotate(0)"><path d="M10 5L5 0L0 5L5 10L0 15L5 20L10 15L15 20L20 15L15 10L20 5L15 0L10 5Z" fill="#3f9a58"/></g><g transform="translate(620.31,271.38) scale(1.9385000000000001) rotate(0)"><path d="M10 5L5 0L0 5L5 10L0 15L5 20L10 15L15 20L20 15L15 10L20 5L15 0L10 5Z" fill="#92008e"/></g><g transform="translate(659.08,271.38) scale(1.9385000000000001) rotate(0)"><path d="M10 5L5 0L0 5L5 10L0 15L5 20L10 15L15 20L20 15L15 10L20 5L15 0L10 5Z" fill="#49b467"/></g><g transform="translate(697.85,232.62) scale(3.8770000000000002) rotate(0)"><path d="M10 5L5 0L0 5L5 10L0 15L5 20L10 15L15 20L20 15L15 10L20 5L15 0L10 5Z" fill="#780074"/></g><g transform="translate(0,310.15) scale(3.8770000000000002) rotate(0)"><path d="M10 5L5 0L0 5L5 10L0 15L5 20L10 15L15 20L20 15L15 10L20 5L15 0L10 5Z" fill="#0b000b"/></g><g transform="translate(77.54,310.15) scale(3.8770000000000002) rotate(0)"><path d="M10 5L5 0L0 5L5 10L0 15L5 20L10 15L15 20L20 15L15 10L20 5L15 0L10 5Z" fill="#030805"/></g><g transform="translate(155.08,310.15) scale(3.8770000000000002) rotate(0)"><path d="M10 5L5 0L0 5L5 10L0 15L5 20L10 15L15 20L20 15L15 10L20 5L15 0L10 5Z" fill="#cb00c4"/></g><g transform="translate(232.62,310.15) scale(3.8770000000000002) rotate(0)"><path d="M10 5L5 0L0 5L5 10L0 15L5 20L10 15L15 20L20 15L15 10L20 5L15 0L10 5Z" fill="#bf00b8"/></g><g transform="translate(310.15,310.15) scale(3.8770000000000002) rotate(0)"><path d="M10 5L5 0L0 5L5 10L0 15L5 20L10 15L15 20L20 15L15 10L20 5L15 0L10 5Z" fill="#15351e"/></g><g transform="translate(387.69,310.15) scale(3.8770000000000002) rotate(0)"><path d="M10 5L5 0L0 5L5 10L0 15L5 20L10 15L15 20L20 15L15 10L20 5L15 0L10 5Z" fill="#bd00b7"/></g><g transform="translate(465.23,310.15) scale(3.8770000000000002) rotate(0)"><path d="M10 5L5 0L0 5L5 10L0 15L5 20L10 15L15 20L20 15L15 10L20 5L15 0L10 5Z" fill="#ea00e2"/></g><g transform="translate(542.77,310.15) scale(3.8770000000000002) rotate(0)"><path d="M10 5L5 0L0 5L5 10L0 15L5 20L10 15L15 20L20 15L15 10L20 5L15 0L10 5Z" fill="#840080"/></g><g transform="translate(620.31,310.15) scale(3.8770000000000002) rotate(0)"><path d="M10 5L5 0L0 5L5 10L0 15L5 20L10 15L15 20L20 15L15 10L20 5L15 0L10 5Z" fill="#f300ec"/></g><g transform="translate(697.85,310.15) scale(3.8770000000000002) rotate(0)"><path d="M10 5L5 0L0 5L5 10L0 15L5 20L10 15L15 20L20 15L15 10L20 5L15 0L10 5Z" fill="#80007c"/></g><g transform="translate(0,387.69) scale(3.8770000000000002) rotate(0)"><path d="M10 5L5 0L0 5L5 10L0 15L5 20L10 15L15 20L20 15L15 10L20 5L15 0L10 5Z" fill="#ea00e3"/></g><g transform="translate(77.54,387.69) scale(3.8770000000000002) rotate(0)"><path d="M10 5L5 0L0 5L5 10L0 15L5 20L10 15L15 20L20 15L15 10L20 5L15 0L10 5Z" fill="#337d48"/></g><rect x="155.07692307692307" y="387.6923076923077" width="77.53846153846153" height="77.53846153846153" fill="#000000"/><g transform="translate(155.08,387.69) scale(1.9385000000000001) rotate(0)"><path d="M10 5L5 0L0 5L5 10L0 15L5 20L10 15L15 20L20 15L15 10L20 5L15 0L10 5Z" fill="#060006"/></g><g transform="translate(193.85,387.69) scale(1.9385000000000001) rotate(0)"><path d="M10 5L5 0L0 5L5 10L0 15L5 20L10 15L15 20L20 15L15 10L20 5L15 0L10 5Z" fill="#690066"/></g><g transform="translate(155.08,426.46) scale(1.9385000000000001) rotate(0)"><path d="M10 5L5 0L0 5L5 10L0 15L5 20L10 15L15 20L20 15L15 10L20 5L15 0L10 5Z" fill="#160016"/></g><g transform="translate(193.85,426.46) scale(1.9385000000000001) rotate(0)"><path d="M10 5L5 0L0 5L5 10L0 15L5 20L10 15L15 20L20 15L15 10L20 5L15 0L10 5Z" fill="#c400be"/></g><g transform="translate(232.62,387.69) scale(3.8770000000000002) rotate(0)"><path d="M10 5L5 0L0 5L5 10L0 15L5 20L10 15L15 20L20 15L15 10L20 5L15 0L10 5Z" fill="#2b6a3d"/></g><rect x="310.15384615384613" y="387.6923076923077" width="77.53846153846153" height="77.53846153846153" fill="#000000"/><g transform="translate(310.15,387.69) scale(1.9385000000000001) rotate(0)"><path d="M10 5L5 0L0 5L5 10L0 15L5 20L10 15L15 20L20 15L15 10L20 5L15 0L10 5Z" fill="#5f005c"/></g><g transform="translate(348.92,387.69) scale(1.9385000000000001) rotate(0)"><path d="M10 5L5 0L0 5L5 10L0 15L5 20L10 15L15 20L20 15L15 10L20 5L15 0L10 5Z" fill="#245a33"/></g><g transform="translate(310.15,426.46) scale(1.9385000000000001) rotate(0)"><path d="M10 5L5 0L0 5L5 10L0 15L5 20L10 15L15 20L20 15L15 10L20 5L15 0L10 5Z" fill="#290028"/></g><g transform="translate(348.92,426.46) scale(1.9385000000000001) rotate(0)"><path d="M10 5L5 0L0 5L5 10L0 15L5 20L10 15L15 20L20 15L15 10L20 5L15 0L10 5Z" fill="#45a961"/></g><rect x="387.6923076923077" y="387.6923076923077" width="77.53846153846153" height="77.53846153846153" fill="#000000"/><g transform="translate(387.69,387.69) scale(1.9385000000000001) rotate(0)"><path d="M10 5L5 0L0 5L5 10L0 15L5 20L10 15L15 20L20 15L15 10L20 5L15 0L10 5Z" fill="#14301c"/></g><g transform="translate(426.46,387.69) scale(1.9385000000000001) rotate(0)"><path d="M10 5L5 0L0 5L5 10L0 15L5 20L10 15L15 20L20 15L15 10L20 5L15 0L10 5Z" fill="#49b367"/></g><g transform="translate(387.69,426.46) scale(1.9385000000000001) rotate(0)"><path d="M10 5L5 0L0 5L5 10L0 15L5 20L10 15L15 20L20 15L15 10L20 5L15 0L10 5Z" fill="#6e006b"/></g><g transform="translate(426.46,426.46) scale(1.9385000000000001) rotate(0)"><path d="M10 5L5 0L0 5L5 10L0 15L5 20L10 15L15 20L20 15L15 10L20 5L15 0L10 5Z" fill="#8b0087"/></g><g transform="translate(465.23,387.69) scale(3.8770000000000002) rotate(0)"><path d="M10 5L5 0L0 5L5 10L0 15L5 20L10 15L15 20L20 15L15 10L20 5L15 0L10 5Z" fill="#4fc370"/></g><rect x="542.7692307692307" y="387.6923076923077" width="77.53846153846153" height="77.53846153846153" fill="#000000"/><g transform="translate(542.77,387.69) scale(1.9385000000000001) rotate(0)"><path d="M10 5L5 0L0 5L5 10L0 15L5 20L10 15L15 20L20 15L15 10L20 5L15 0L10 5Z" fill="#850080"/></g><g transform="translate(581.54,387.69) scale(1.9385000000000001) rotate(0)"><path d="M10 5L5 0L0 5L5 10L0 15L5 20L10 15L15 20L20 15L15 10L20 5L15 0L10 5Z" fill="#d700d0"/></g><g transform="translate(542.77,426.46) scale(1.9385000000000001) rotate(0)"><path d="M10 5L5 0L0 5L5 10L0 15L5 20L10 15L15 20L20 15L15 10L20 5L15 0L10 5Z" fill="#680065"/></g><g transform="translate(581.54,426.46) scale(1.9385000000000001) rotate(0)"><path d="M10 5L5 0L0 5L5 10L0 15L5 20L10 15L15 20L20 15L15 10L20 5L15 0L10 5Z" fill="#020402"/></g><g transform="translate(620.31,387.69) scale(3.8770000000000002) rotate(0)"><path d="M10 5L5 0L0 5L5 10L0 15L5 20L10 15L15 20L20 15L15 10L20 5L15 0L10 5Z" fill="#307643"/></g><g transform="translate(697.85,387.69) scale(3.8770000000000002) rotate(0)"><path d="M10 5L5 0L0 5L5 10L0 15L5 20L10 15L15 20L20 15L15 10L20 5L15 0L10 5Z" fill="#60eb87"/></g><g transform="translate(0,465.23) scale(3.8770000000000002) rotate(0)"><path d="M10 5L5 0L0 5L5 10L0 15L5 20L10 15L15 20L20 15L15 10L20 5L15 0L10 5Z" fill="#a0009b"/></g><g transform="translate(77.54,465.23) scale(3.8770000000000002) rotate(0)"><path d="M10 5L5 0L0 5L5 10L0 15L5 20L10 15L15 20L20 15L15 10L20 5L15 0L10 5Z" fill="#f900f1"/></g><g transform="translate(155.08,465.23) scale(3.8770000000000002) rotate(0)"><path d="M10 5L5 0L0 5L5 10L0 15L5 20L10 15L15 20L20 15L15 10L20 5L15 0L10 5Z" fill="#5d005a"/></g><g transform="translate(232.62,465.23) scale(3.8770000000000002) rotate(0)"><path d="M10 5L5 0L0 5L5 10L0 15L5 20L10 15L15 20L20 15L15 10L20 5L15 0L10 5Z" fill="#5ee885"/></g><g transform="translate(310.15,465.23) scale(3.8770000000000002) rotate(0)"><path d="M10 5L5 0L0 5L5 10L0 15L5 20L10 15L15 20L20 15L15 10L20 5L15 0L10 5Z" fill="#b400ae"/></g><g transform="translate(387.69,465.23) scale(3.8770000000000002) rotate(0)"><path d="M10 5L5 0L0 5L5 10L0 15L5 20L10 15L15 20L20 15L15 10L20 5L15 0L10 5Z" fill="#390037"/></g><rect x="465.23076923076917" y="465.23076923076917" width="77.53846153846153" height="77.53846153846153" fill="#000000"/><g transform="translate(465.23,465.23) scale(1.9385000000000001) rotate(0)"><path d="M10 5L5 0L0 5L5 10L0 15L5 20L10 15L15 20L20 15L15 10L20 5L15 0L10 5Z" fill="#3c9555"/></g><g transform="translate(504,465.23) scale(1.9385000000000001) rotate(0)"><path d="M10 5L5 0L0 5L5 10L0 15L5 20L10 15L15 20L20 15L15 10L20 5L15 0L10 5Z" fill="#430040"/></g><g transform="translate(465.23,504) scale(1.9385000000000001) rotate(0)"><path d="M10 5L5 0L0 5L5 10L0 15L5 20L10 15L15 20L20 15L15 10L20 5L15 0L10 5Z" fill="#040a06"/></g><g transform="translate(504,504) scale(1.9385000000000001) rotate(0)"><path d="M10 5L5 0L0 5L5 10L0 15L5 20L10 15L15 20L20 15L15 10L20 5L15 0L10 5Z" fill="#276037"/></g><g transform="translate(542.77,465.23) scale(3.8770000000000002) rotate(0)"><path d="M10 5L5 0L0 5L5 10L0 15L5 20L10 15L15 20L20 15L15 10L20 5L15 0L10 5Z" fill="#cb00c5"/></g><g transform="translate(620.31,465.23) scale(3.8770000000000002) rotate(0)"><path d="M10 5L5 0L0 5L5 10L0 15L5 20L10 15L15 20L20 15L15 10L20 5L15 0L10 5Z" fill="#e300dc"/></g><g transform="translate(697.85,465.23) scale(3.8770000000000002) rotate(0)"><path d="M10 5L5 0L0 5L5 10L0 15L5 20L10 15L15 20L20 15L15 10L20 5L15 0L10 5Z" fill="#f300eb"/></g><g transform="translate(0,542.77) scale(3.8770000000000002) rotate(0)"><path d="M10 5L5 0L0 5L5 10L0 15L5 20L10 15L15 20L20 15L15 10L20 5L15 0L10 5Z" fill="#50c571"/></g><g transform="translate(77.54,542.77) scale(3.8770000000000002) rotate(0)"><path d="M10 5L5 0L0 5L5 10L0 15L5 20L10 15L15 20L20 15L15 10L20 5L15 0L10 5Z" fill="#3b9153"/></g><rect x="155.07692307692307" y="542.7692307692307" width="77.53846153846153" height="77.53846153846153" fill="#000000"/><g transform="translate(155.08,542.77) scale(1.9385000000000001) rotate(0)"><path d="M10 5L5 0L0 5L5 10L0 15L5 20L10 15L15 20L20 15L15 10L20 5L15 0L10 5Z" fill="#430041"/></g><g transform="translate(193.85,542.77) scale(1.9385000000000001) rotate(0)"><path d="M10 5L5 0L0 5L5 10L0 15L5 20L10 15L15 20L20 15L15 10L20 5L15 0L10 5Z" fill="#df00d8"/></g><g transform="translate(155.08,581.54) scale(1.9385000000000001) rotate(0)"><path d="M10 5L5 0L0 5L5 10L0 15L5 20L10 15L15 20L20 15L15 10L20 5L15 0L10 5Z" fill="#be00b8"/></g><g transform="translate(193.85,581.54) scale(1.9385000000000001) rotate(0)"><path d="M10 5L5 0L0 5L5 10L0 15L5 20L10 15L15 20L20 15L15 10L20 5L15 0L10 5Z" fill="#0b1a0f"/></g><g transform="translate(232.62,542.77) scale(3.8770000000000002) rotate(0)"><path d="M10 5L5 0L0 5L5 10L0 15L5 20L10 15L15 20L20 15L15 10L20 5L15 0L10 5Z" fill="#235531"/></g><g transform="translate(310.15,542.77) scale(3.8770000000000002) rotate(0)"><path d="M10 5L5 0L0 5L5 10L0 15L5 20L10 15L15 20L20 15L15 10L20 5L15 0L10 5Z" fill="#3b003a"/></g><rect x="387.6923076923077" y="542.7692307692307" width="77.53846153846153" height="77.53846153846153" fill="#000000"/><g transform="translate(387.69,542.77) scale(1.9385000000000001) rotate(0)"><path d="M10 5L5 0L0 5L5 10L0 15L5 20L10 15L15 20L20 15L15 10L20 5L15 0L10 5Z" fill="#a3009e"/></g><g transform="translate(426.46,542.77) scale(1.9385000000000001) rotate(0)"><path d="M10 5L5 0L0 5L5 10L0 15L5 20L10 15L15 20L20 15L15 10L20 5L15 0L10 5Z" fill="#59db7e"/></g><g transform="translate(387.69,581.54) scale(1.9385000000000001) rotate(0)"><path d="M10 5L5 0L0 5L5 10L0 15L5 20L10 15L15 20L20 15L15 10L20 5L15 0L10 5Z" fill="#44a861"/></g><g transform="translate(426.46,581.54) scale(1.9385000000000001) rotate(0)"><path d="M10 5L5 0L0 5L5 10L0 15L5 20L10 15L15 20L20 15L15 10L20 5L15 0L10 5Z" fill="#193d23"/></g><rect x="465.23076923076917" y="542.7692307692307" width="77.53846153846153" height="77.53846153846153" fill="#000000"/><g transform="translate(465.23,542.77) scale(1.9385000000000001) rotate(0)"><path d="M10 5L5 0L0 5L5 10L0 15L5 20L10 15L15 20L20 15L15 10L20 5L15 0L10 5Z" fill="#42a35d"/></g><g transform="translate(504,542.77) scale(1.9385000000000001) rotate(0)"><path d="M10 5L5 0L0 5L5 10L0 15L5 20L10 15L15 20L20 15L15 10L20 5L15 0L10 5Z" fill="#540051"/></g><g transform="translate(465.23,581.54) scale(1.9385000000000001) rotate(0)"><path d="M10 5L5 0L0 5L5 10L0 15L5 20L10 15L15 20L20 15L15 10L20 5L15 0L10 5Z" fill="#660063"/></g><g transform="translate(504,581.54) scale(1.9385000000000001) rotate(0)"><path d="M10 5L5 0L0 5L5 10L0 15L5 20L10 15L15 20L20 15L15 10L20 5L15 0L10 5Z" fill="#040a06"/></g><rect x="542.7692307692307" y="542.7692307692307" width="77.53846153846153" height="77.53846153846153" fill="#000000"/><g transform="translate(542.77,542.77) scale(1.9385000000000001) rotate(0)"><path d="M10 5L5 0L0 5L5 10L0 15L5 20L10 15L15 20L20 15L15 10L20 5L15 0L10 5Z" fill="#050005"/></g><g transform="translate(581.54,542.77) scale(1.9385000000000001) rotate(0)"><path d="M10 5L5 0L0 5L5 10L0 15L5 20L10 15L15 20L20 15L15 10L20 5L15 0L10 5Z" fill="#140013"/></g><g transform="translate(542.77,581.54) scale(1.9385000000000001) rotate(0)"><path d="M10 5L5 0L0 5L5 10L0 15L5 20L10 15L15 20L20 15L15 10L20 5L15 0L10 5Z" fill="#2d002b"/></g><g transform="translate(581.54,581.54) scale(1.9385000000000001) rotate(0)"><path d="M10 5L5 0L0 5L5 10L0 15L5 20L10 15L15 20L20 15L15 10L20 5L15 0L10 5Z" fill="#4fc26f"/></g><g transform="translate(620.31,542.77) scale(3.8770000000000002) rotate(0)"><path d="M10 5L5 0L0 5L5 10L0 15L5 20L10 15L15 20L20 15L15 10L20 5L15 0L10 5Z" fill="#b400af"/></g><rect x="697.8461538461538" y="542.7692307692307" width="77.53846153846153" height="77.53846153846153" fill="#000000"/><g transform="translate(697.85,542.77) scale(1.9385000000000001) rotate(0)"><path d="M10 5L5 0L0 5L5 10L0 15L5 20L10 15L15 20L20 15L15 10L20 5L15 0L10 5Z" fill="#41003f"/></g><g transform="translate(736.62,542.77) scale(1.9385000000000001) rotate(0)"><path d="M10 5L5 0L0 5L5 10L0 15L5 20L10 15L15 20L20 15L15 10L20 5L15 0L10 5Z" fill="#53cc75"/></g><g transform="translate(697.85,581.54) scale(1.9385000000000001) rotate(0)"><path d="M10 5L5 0L0 5L5 10L0 15L5 20L10 15L15 20L20 15L15 10L20 5L15 0L10 5Z" fill="#41a15c"/></g><g transform="translate(736.62,581.54) scale(1.9385000000000001) rotate(0)"><path d="M10 5L5 0L0 5L5 10L0 15L5 20L10 15L15 20L20 15L15 10L20 5L15 0L10 5Z" fill="#360034"/></g><g transform="translate(0,620.31) scale(3.8770000000000002) rotate(0)"><path d="M10 5L5 0L0 5L5 10L0 15L5 20L10 15L15 20L20 15L15 10L20 5L15 0L10 5Z" fill="#56d47a"/></g><g transform="translate(77.54,620.31) scale(3.8770000000000002) rotate(0)"><path d="M10 5L5 0L0 5L5 10L0 15L5 20L10 15L15 20L20 15L15 10L20 5L15 0L10 5Z" fill="#71006e"/></g><g transform="translate(155.08,620.31) scale(3.8770000000000002) rotate(0)"><path d="M10 5L5 0L0 5L5 10L0 15L5 20L10 15L15 20L20 15L15 10L20 5L15 0L10 5Z" fill="#bf00b8"/></g><g transform="translate(232.62,620.31) scale(3.8770000000000002) rotate(0)"><path d="M10 5L5 0L0 5L5 10L0 15L5 20L10 15L15 20L20 15L15 10L20 5L15 0L10 5Z" fill="#d400cd"/></g><g transform="translate(310.15,620.31) scale(3.8770000000000002) rotate(0)"><path d="M10 5L5 0L0 5L5 10L0 15L5 20L10 15L15 20L20 15L15 10L20 5L15 0L10 5Z" fill="#680065"/></g><g transform="translate(387.69,620.31) scale(3.8770000000000002) rotate(0)"><path d="M10 5L5 0L0 5L5 10L0 15L5 20L10 15L15 20L20 15L15 10L20 5L15 0L10 5Z" fill="#3a8e51"/></g><g transform="translate(465.23,620.31) scale(3.8770000000000002) rotate(0)"><path d="M10 5L5 0L0 5L5 10L0 15L5 20L10 15L15 20L20 15L15 10L20 5L15 0L10 5Z" fill="#d900d2"/></g><g transform="translate(542.77,620.31) scale(3.8770000000000002) rotate(0)"><path d="M10 5L5 0L0 5L5 10L0 15L5 20L10 15L15 20L20 15L15 10L20 5L15 0L10 5Z" fill="#d800d1"/></g><g transform="translate(620.31,620.31) scale(3.8770000000000002) rotate(0)"><path d="M10 5L5 0L0 5L5 10L0 15L5 20L10 15L15 20L20 15L15 10L20 5L15 0L10 5Z" fill="#47af64"/></g><g transform="translate(697.85,620.31) scale(3.8770000000000002) rotate(0)"><path d="M10 5L5 0L0 5L5 10L0 15L5 20L10 15L15 20L20 15L15 10L20 5L15 0L10 5Z" fill="#51c973"/></g><g transform="translate(0,697.85) scale(3.8770000000000002) rotate(0)"><path d="M10 5L5 0L0 5L5 10L0 15L5 20L10 15L15 20L20 15L15 10L20 5L15 0L10 5Z" fill="#57d77b"/></g><g transform="translate(77.54,697.85) scale(3.8770000000000002) rotate(0)"><path d="M10 5L5 0L0 5L5 10L0 15L5 20L10 15L15 20L20 15L15 10L20 5L15 0L10 5Z" fill="#180018"/></g><g transform="translate(155.08,697.85) scale(3.8770000000000002) rotate(0)"><path d="M10 5L5 0L0 5L5 10L0 15L5 20L10 15L15 20L20 15L15 10L20 5L15 0L10 5Z" fill="#47ae64"/></g><rect x="232.61538461538458" y="697.8461538461538" width="77.53846153846153" height="77.53846153846153" fill="#000000"/><g transform="translate(232.62,697.85) scale(1.9385000000000001) rotate(0)"><path d="M10 5L5 0L0 5L5 10L0 15L5 20L10 15L15 20L20 15L15 10L20 5L15 0L10 5Z" fill="#30002e"/></g><g transform="translate(271.38,697.85) scale(1.9385000000000001) rotate(0)"><path d="M10 5L5 0L0 5L5 10L0 15L5 20L10 15L15 20L20 15L15 10L20 5L15 0L10 5Z" fill="#a900a4"/></g><g transform="translate(232.62,736.62) scale(1.9385000000000001) rotate(0)"><path d="M10 5L5 0L0 5L5 10L0 15L5 20L10 15L15 20L20 15L15 10L20 5L15 0L10 5Z" fill="#58da7d"/></g><g transform="translate(271.38,736.62) scale(1.9385000000000001) rotate(0)"><path d="M10 5L5 0L0 5L5 10L0 15L5 20L10 15L15 20L20 15L15 10L20 5L15 0L10 5Z" fill="#b100ab"/></g><g transform="translate(310.15,697.85) scale(3.8770000000000002) rotate(0)"><path d="M10 5L5 0L0 5L5 10L0 15L5 20L10 15L15 20L20 15L15 10L20 5L15 0L10 5Z" fill="#0e2213"/></g><g transform="translate(387.69,697.85) scale(3.8770000000000002) rotate(0)"><path d="M10 5L5 0L0 5L5 10L0 15L5 20L10 15L15 20L20 15L15 10L20 5L15 0L10 5Z" fill="#e500dd"/></g><g transform="translate(465.23,697.85) scale(3.8770000000000002) rotate(0)"><path d="M10 5L5 0L0 5L5 10L0 15L5 20L10 15L15 20L20 15L15 10L20 5L15 0L10 5Z" fill="#398c50"/></g><g transform="translate(542.77,697.85) scale(3.8770000000000002) rotate(0)"><path d="M10 5L5 0L0 5L5 10L0 15L5 20L10 15L15 20L20 15L15 10L20 5L15 0L10 5Z" fill="#56d47a"/></g><g transform="translate(620.31,697.85) scale(3.8770000000000002) rotate(0)"><path d="M10 5L5 0L0 5L5 10L0 15L5 20L10 15L15 20L20 15L15 10L20 5L15 0L10 5Z" fill="#970092"/></g><g transform="translate(697.85,697.85) scale(3.8770000000000002) rotate(0)"><path d="M10 5L5 0L0 5L5 10L0 15L5 20L10 15L15 20L20 15L15 10L20 5L15 0L10 5Z" fill="#5de483"/></g><rect x="0" y="775.3846153846154" width="77.53846153846153" height="77.53846153846153" fill="#000000"/><g transform="translate(0,775.38) scale(1.9385000000000001) rotate(0)"><path d="M10 5L5 0L0 5L5 10L0 15L5 20L10 15L15 20L20 15L15 10L20 5L15 0L10 5Z" fill="#59db7e"/></g><g transform="translate(38.77,775.38) scale(1.9385000000000001) rotate(0)"><path d="M10 5L5 0L0 5L5 10L0 15L5 20L10 15L15 20L20 15L15 10L20 5L15 0L10 5Z" fill="#ef00e8"/></g><g transform="translate(0,814.15) scale(1.9385000000000001) rotate(0)"><path d="M10 5L5 0L0 5L5 10L0 15L5 20L10 15L15 20L20 15L15 10L20 5L15 0L10 5Z" fill="#43a65f"/></g><g transform="translate(38.77,814.15) scale(1.9385000000000001) rotate(0)"><path d="M10 5L5 0L0 5L5 10L0 15L5 20L10 15L15 20L20 15L15 10L20 5L15 0L10 5Z" fill="#b000aa"/></g><g transform="translate(77.54,775.38) scale(3.8770000000000002) rotate(0)"><path d="M10 5L5 0L0 5L5 10L0 15L5 20L10 15L15 20L20 15L15 10L20 5L15 0L10 5Z" fill="#3d003b"/></g><g transform="translate(155.08,775.38) scale(3.8770000000000002) rotate(0)"><path d="M10 5L5 0L0 5L5 10L0 15L5 20L10 15L15 20L20 15L15 10L20 5L15 0L10 5Z" fill="#6e006b"/></g><g transform="translate(232.62,775.38) scale(3.8770000000000002) rotate(0)"><path d="M10 5L5 0L0 5L5 10L0 15L5 20L10 15L15 20L20 15L15 10L20 5L15 0L10 5Z" fill="#47b065"/></g><g transform="translate(310.15,775.38) scale(3.8770000000000002) rotate(0)"><path d="M10 5L5 0L0 5L5 10L0 15L5 20L10 15L15 20L20 15L15 10L20 5L15 0L10 5Z" fill="#080008"/></g><g transform="translate(387.69,775.38) scale(3.8770000000000002) rotate(0)"><path d="M10 5L5 0L0 5L5 10L0 15L5 20L10 15L15 20L20 15L15 10L20 5L15 0L10 5Z" fill="#e700df"/></g><g transform="translate(465.23,775.38) scale(3.8770000000000002) rotate(0)"><path d="M10 5L5 0L0 5L5 10L0 15L5 20L10 15L15 20L20 15L15 10L20 5L15 0L10 5Z" fill="#0c1f12"/></g><g transform="translate(542.77,775.38) scale(3.8770000000000002) rotate(0)"><path d="M10 5L5 0L0 5L5 10L0 15L5 20L10 15L15 20L20 15L15 10L20 5L15 0L10 5Z" fill="#540051"/></g><rect x="620.3076923076923" y="775.3846153846154" width="77.53846153846153" height="77.53846153846153" fill="#000000"/><g transform="translate(620.31,775.38) scale(1.9385000000000001) rotate(0)"><path d="M10 5L5 0L0 5L5 10L0 15L5 20L10 15L15 20L20 15L15 10L20 5L15 0L10 5Z" fill="#0b000a"/></g><g transform="translate(659.08,775.38) scale(1.9385000000000001) rotate(0)"><path d="M10 5L5 0L0 5L5 10L0 15L5 20L10 15L15 20L20 15L15 10L20 5L15 0L10 5Z" fill="#d900d3"/></g><g transform="translate(620.31,814.15) scale(1.9385000000000001) rotate(0)"><path d="M10 5L5 0L0 5L5 10L0 15L5 20L10 15L15 20L20 15L15 10L20 5L15 0L10 5Z" fill="#225430"/></g><g transform="translate(659.08,814.15) scale(1.9385000000000001) rotate(0)"><path d="M10 5L5 0L0 5L5 10L0 15L5 20L10 15L15 20L20 15L15 10L20 5L15 0L10 5Z" fill="#337e48"/></g><g transform="translate(697.85,775.38) scale(3.8770000000000002) rotate(0)"><path d="M10 5L5 0L0 5L5 10L0 15L5 20L10 15L15 20L20 15L15 10L20 5L15 0L10 5Z" fill="#850081"/></g><g transform="translate(0,852.92) scale(3.8770000000000002) rotate(0)"><path d="M10 5L5 0L0 5L5 10L0 15L5 20L10 15L15 20L20 15L15 10L20 5L15 0L10 5Z" fill="#60005d"/></g><g transform="translate(77.54,852.92) scale(3.8770000000000002) rotate(0)"><path d="M10 5L5 0L0 5L5 10L0 15L5 20L10 15L15 20L20 15L15 10L20 5L15 0L10 5Z" fill="#2b6b3d"/></g><g transform="translate(155.08,852.92) scale(3.8770000000000002) rotate(0)"><path d="M10 5L5 0L0 5L5 10L0 15L5 20L10 15L15 20L20 15L15 10L20 5L15 0L10 5Z" fill="#8e008a"/></g><g transform="translate(232.62,852.92) scale(3.8770000000000002) rotate(0)"><path d="M10 5L5 0L0 5L5 10L0 15L5 20L10 15L15 20L20 15L15 10L20 5L15 0L10 5Z" fill="#7c0078"/></g><rect x="310.15384615384613" y="852.9230769230769" width="77.53846153846153" height="77.53846153846153" fill="#000000"/><g transform="translate(310.15,852.92) scale(1.9385000000000001) rotate(0)"><path d="M10 5L5 0L0 5L5 10L0 15L5 20L10 15L15 20L20 15L15 10L20 5L15 0L10 5Z" fill="#3c9455"/></g><g transform="translate(348.92,852.92) scale(1.9385000000000001) rotate(0)"><path d="M10 5L5 0L0 5L5 10L0 15L5 20L10 15L15 20L20 15L15 10L20 5L15 0L10 5Z" fill="#245a33"/></g><g transform="translate(310.15,891.69) scale(1.9385000000000001) rotate(0)"><path d="M10 5L5 0L0 5L5 10L0 15L5 20L10 15L15 20L20 15L15 10L20 5L15 0L10 5Z" fill="#388b50"/></g><g transform="translate(348.92,891.69) scale(1.9385000000000001) rotate(0)"><path d="M10 5L5 0L0 5L5 10L0 15L5 20L10 15L15 20L20 15L15 10L20 5L15 0L10 5Z" fill="#122d1a"/></g><g transform="translate(387.69,852.92) scale(3.8770000000000002) rotate(0)"><path d="M10 5L5 0L0 5L5 10L0 15L5 20L10 15L15 20L20 15L15 10L20 5L15 0L10 5Z" fill="#4cbc6c"/></g><rect x="465.23076923076917" y="852.9230769230769" width="77.53846153846153" height="77.53846153846153" fill="#000000"/><g transform="translate(465.23,852.92) scale(1.9385000000000001) rotate(0)"><path d="M10 5L5 0L0 5L5 10L0 15L5 20L10 15L15 20L20 15L15 10L20 5L15 0L10 5Z" fill="#480046"/></g><g transform="translate(504,852.92) scale(1.9385000000000001) rotate(0)"><path d="M10 5L5 0L0 5L5 10L0 15L5 20L10 15L15 20L20 15L15 10L20 5L15 0L10 5Z" fill="#b700b1"/></g><g transform="translate(465.23,891.69) scale(1.9385000000000001) rotate(0)"><path d="M10 5L5 0L0 5L5 10L0 15L5 20L10 15L15 20L20 15L15 10L20 5L15 0L10 5Z" fill="#2a683c"/></g><g transform="translate(504,891.69) scale(1.9385000000000001) rotate(0)"><path d="M10 5L5 0L0 5L5 10L0 15L5 20L10 15L15 20L20 15L15 10L20 5L15 0L10 5Z" fill="#43a65f"/></g><rect x="542.7692307692307" y="852.9230769230769" width="77.53846153846153" height="77.53846153846153" fill="#000000"/><g transform="translate(542.77,852.92) scale(1.9385000000000001) rotate(0)"><path d="M10 5L5 0L0 5L5 10L0 15L5 20L10 15L15 20L20 15L15 10L20 5L15 0L10 5Z" fill="#b300ad"/></g><g transform="translate(581.54,852.92) scale(1.9385000000000001) rotate(0)"><path d="M10 5L5 0L0 5L5 10L0 15L5 20L10 15L15 20L20 15L15 10L20 5L15 0L10 5Z" fill="#b300ad"/></g><g transform="translate(542.77,891.69) scale(1.9385000000000001) rotate(0)"><path d="M10 5L5 0L0 5L5 10L0 15L5 20L10 15L15 20L20 15L15 10L20 5L15 0L10 5Z" fill="#000000"/></g><g transform="translate(581.54,891.69) scale(1.9385000000000001) rotate(0)"><path d="M10 5L5 0L0 5L5 10L0 15L5 20L10 15L15 20L20 15L15 10L20 5L15 0L10 5Z" fill="#c200bc"/></g><g transform="translate(620.31,852.92) scale(3.8770000000000002) rotate(0)"><path d="M10 5L5 0L0 5L5 10L0 15L5 20L10 15L15 20L20 15L15 10L20 5L15 0L10 5Z" fill="#2c6d3e"/></g><rect x="697.8461538461538" y="852.9230769230769" width="77.53846153846153" height="77.53846153846153" fill="#000000"/><g transform="translate(697.85,852.92) scale(1.9385000000000001) rotate(0)"><path d="M10 5L5 0L0 5L5 10L0 15L5 20L10 15L15 20L20 15L15 10L20 5L15 0L10 5Z" fill="#f400ed"/></g><g transform="translate(736.62,852.92) scale(1.9385000000000001) rotate(0)"><path d="M10 5L5 0L0 5L5 10L0 15L5 20L10 15L15 20L20 15L15 10L20 5L15 0L10 5Z" fill="#4dbe6d"/></g><g transform="translate(697.85,891.69) scale(1.9385000000000001) rotate(0)"><path d="M10 5L5 0L0 5L5 10L0 15L5 20L10 15L15 20L20 15L15 10L20 5L15 0L10 5Z" fill="#5d005a"/></g><g transform="translate(736.62,891.69) scale(1.9385000000000001) rotate(0)"><path d="M10 5L5 0L0 5L5 10L0 15L5 20L10 15L15 20L20 15L15 10L20 5L15 0L10 5Z" fill="#850081"/></g><g transform="translate(0,930.46) scale(3.8770000000000002) rotate(0)"><path d="M10 5L5 0L0 5L5 10L0 15L5 20L10 15L15 20L20 15L15 10L20 5L15 0L10 5Z" fill="#57d67a"/></g><g transform="translate(77.54,930.46) scale(3.8770000000000002) rotate(0)"><path d="M10 5L5 0L0 5L5 10L0 15L5 20L10 15L15 20L20 15L15 10L20 5L15 0L10 5Z" fill="#1c4628"/></g><g transform="translate(155.08,930.46) scale(3.8770000000000002) rotate(0)"><path d="M10 5L5 0L0 5L5 10L0 15L5 20L10 15L15 20L20 15L15 10L20 5L15 0L10 5Z" fill="#bd00b7"/></g><rect x="232.61538461538458" y="930.4615384615383" width="77.53846153846153" height="77.53846153846153" fill="#000000"/><g transform="translate(232.62,930.46) scale(1.9385000000000001) rotate(0)"><path d="M10 5L5 0L0 5L5 10L0 15L5 20L10 15L15 20L20 15L15 10L20 5L15 0L10 5Z" fill="#570055"/></g><g transform="translate(271.38,930.46) scale(1.9385000000000001) rotate(0)"><path d="M10 5L5 0L0 5L5 10L0 15L5 20L10 15L15 20L20 15L15 10L20 5L15 0L10 5Z" fill="#980093"/></g><g transform="translate(232.62,969.23) scale(1.9385000000000001) rotate(0)"><path d="M10 5L5 0L0 5L5 10L0 15L5 20L10 15L15 20L20 15L15 10L20 5L15 0L10 5Z" fill="#bd00b7"/></g><g transform="translate(271.38,969.23) scale(1.9385000000000001) rotate(0)"><path d="M10 5L5 0L0 5L5 10L0 15L5 20L10 15L15 20L20 15L15 10L20 5L15 0L10 5Z" fill="#21512e"/></g><g transform="translate(310.15,930.46) scale(3.8770000000000002) rotate(0)"><path d="M10 5L5 0L0 5L5 10L0 15L5 20L10 15L15 20L20 15L15 10L20 5L15 0L10 5Z" fill="#4ec06e"/></g><rect x="387.6923076923077" y="930.4615384615383" width="77.53846153846153" height="77.53846153846153" fill="#000000"/><g transform="translate(387.69,930.46) scale(1.9385000000000001) rotate(0)"><path d="M10 5L5 0L0 5L5 10L0 15L5 20L10 15L15 20L20 15L15 10L20 5L15 0L10 5Z" fill="#34814a"/></g><g transform="translate(426.46,930.46) scale(1.9385000000000001) rotate(0)"><path d="M10 5L5 0L0 5L5 10L0 15L5 20L10 15L15 20L20 15L15 10L20 5L15 0L10 5Z" fill="#770073"/></g><g transform="translate(387.69,969.23) scale(1.9385000000000001) rotate(0)"><path d="M10 5L5 0L0 5L5 10L0 15L5 20L10 15L15 20L20 15L15 10L20 5L15 0L10 5Z" fill="#f800f0"/></g><g transform="translate(426.46,969.23) scale(1.9385000000000001) rotate(0)"><path d="M10 5L5 0L0 5L5 10L0 15L5 20L10 15L15 20L20 15L15 10L20 5L15 0L10 5Z" fill="#f300eb"/></g><rect x="465.23076923076917" y="930.4615384615383" width="77.53846153846153" height="77.53846153846153" fill="#000000"/><g transform="translate(465.23,930.46) scale(1.9385000000000001) rotate(0)"><path d="M10 5L5 0L0 5L5 10L0 15L5 20L10 15L15 20L20 15L15 10L20 5L15 0L10 5Z" fill="#7b0077"/></g><g transform="translate(504,930.46) scale(1.9385000000000001) rotate(0)"><path d="M10 5L5 0L0 5L5 10L0 15L5 20L10 15L15 20L20 15L15 10L20 5L15 0L10 5Z" fill="#0a180e"/></g><g transform="translate(465.23,969.23) scale(1.9385000000000001) rotate(0)"><path d="M10 5L5 0L0 5L5 10L0 15L5 20L10 15L15 20L20 15L15 10L20 5L15 0L10 5Z" fill="#3e9857"/></g><g transform="translate(504,969.23) scale(1.9385000000000001) rotate(0)"><path d="M10 5L5 0L0 5L5 10L0 15L5 20L10 15L15 20L20 15L15 10L20 5L15 0L10 5Z" fill="#3d9756"/></g><g transform="translate(542.77,930.46) scale(3.8770000000000002) rotate(0)"><path d="M10 5L5 0L0 5L5 10L0 15L5 20L10 15L15 20L20 15L15 10L20 5L15 0L10 5Z" fill="#4f004c"/></g><g transform="translate(620.31,930.46) scale(3.8770000000000002) rotate(0)"><path d="M10 5L5 0L0 5L5 10L0 15L5 20L10 15L15 20L20 15L15 10L20 5L15 0L10 5Z" fill="#1b4226"/></g><g transform="translate(697.85,930.46) scale(3.8770000000000002) rotate(0)"><path d="M10 5L5 0L0 5L5 10L0 15L5 20L10 15L15 20L20 15L15 10L20 5L15 0L10 5Z" fill="#15331d"/></g><rect x="0" y="1007.9999999999999" width="77.53846153846153" height="77.53846153846153" fill="#000000"/><g transform="translate(0,1008) scale(1.9385000000000001) rotate(0)"><path d="M10 5L5 0L0 5L5 10L0 15L5 20L10 15L15 20L20 15L15 10L20 5L15 0L10 5Z" fill="#43a55f"/></g><g transform="translate(38.77,1008) scale(1.9385000000000001) rotate(0)"><path d="M10 5L5 0L0 5L5 10L0 15L5 20L10 15L15 20L20 15L15 10L20 5L15 0L10 5Z" fill="#3b9153"/></g><g transform="translate(0,1046.77) scale(1.9385000000000001) rotate(0)"><path d="M10 5L5 0L0 5L5 10L0 15L5 20L10 15L15 20L20 15L15 10L20 5L15 0L10 5Z" fill="#317845"/></g><g transform="translate(38.77,1046.77) scale(1.9385000000000001) rotate(0)"><path d="M10 5L5 0L0 5L5 10L0 15L5 20L10 15L15 20L20 15L15 10L20 5L15 0L10 5Z" fill="#50c571"/></g><g transform="translate(77.54,1008) scale(3.8770000000000002) rotate(0)"><path d="M10 5L5 0L0 5L5 10L0 15L5 20L10 15L15 20L20 15L15 10L20 5L15 0L10 5Z" fill="#3a0038"/></g><rect x="155.07692307692307" y="1007.9999999999999" width="77.53846153846153" height="77.53846153846153" fill="#000000"/><g transform="translate(155.08,1008) scale(1.9385000000000001) rotate(0)"><path d="M10 5L5 0L0 5L5 10L0 15L5 20L10 15L15 20L20 15L15 10L20 5L15 0L10 5Z" fill="#1f4c2c"/></g><g transform="translate(193.85,1008) scale(1.9385000000000001) rotate(0)"><path d="M10 5L5 0L0 5L5 10L0 15L5 20L10 15L15 20L20 15L15 10L20 5L15 0L10 5Z" fill="#50c672"/></g><g transform="translate(155.08,1046.77) scale(1.9385000000000001) rotate(0)"><path d="M10 5L5 0L0 5L5 10L0 15L5 20L10 15L15 20L20 15L15 10L20 5L15 0L10 5Z" fill="#41003f"/></g><g transform="translate(193.85,1046.77) scale(1.9385000000000001) rotate(0)"><path d="M10 5L5 0L0 5L5 10L0 15L5 20L10 15L15 20L20 15L15 10L20 5L15 0L10 5Z" fill="#370035"/></g><g transform="translate(232.62,1008) scale(3.8770000000000002) rotate(0)"><path d="M10 5L5 0L0 5L5 10L0 15L5 20L10 15L15 20L20 15L15 10L20 5L15 0L10 5Z" fill="#5ce282"/></g><rect x="310.15384615384613" y="1007.9999999999999" width="77.53846153846153" height="77.53846153846153" fill="#000000"/><g transform="translate(310.15,1008) scale(1.9385000000000001) rotate(0)"><path d="M10 5L5 0L0 5L5 10L0 15L5 20L10 15L15 20L20 15L15 10L20 5L15 0L10 5Z" fill="#173a21"/></g><g transform="translate(348.92,1008) scale(1.9385000000000001) rotate(0)"><path d="M10 5L5 0L0 5L5 10L0 15L5 20L10 15L15 20L20 15L15 10L20 5L15 0L10 5Z" fill="#5de684"/></g><g transform="translate(310.15,1046.77) scale(1.9385000000000001) rotate(0)"><path d="M10 5L5 0L0 5L5 10L0 15L5 20L10 15L15 20L20 15L15 10L20 5L15 0L10 5Z" fill="#4ab769"/></g><g transform="translate(348.92,1046.77) scale(1.9385000000000001) rotate(0)"><path d="M10 5L5 0L0 5L5 10L0 15L5 20L10 15L15 20L20 15L15 10L20 5L15 0L10 5Z" fill="#44a860"/></g><g transform="translate(387.69,1008) scale(3.8770000000000002) rotate(0)"><path d="M10 5L5 0L0 5L5 10L0 15L5 20L10 15L15 20L20 15L15 10L20 5L15 0L10 5Z" fill="#f800f0"/></g><g transform="translate(465.23,1008) scale(3.8770000000000002) rotate(0)"><path d="M10 5L5 0L0 5L5 10L0 15L5 20L10 15L15 20L20 15L15 10L20 5L15 0L10 5Z" fill="#530051"/></g><g transform="translate(542.77,1008) scale(3.8770000000000002) rotate(0)"><path d="M10 5L5 0L0 5L5 10L0 15L5 20L10 15L15 20L20 15L15 10L20 5L15 0L10 5Z" fill="#170016"/></g><g transform="translate(620.31,1008) scale(3.8770000000000002) rotate(0)"><path d="M10 5L5 0L0 5L5 10L0 15L5 20L10 15L15 20L20 15L15 10L20 5L15 0L10 5Z" fill="#d000c9"/></g><g transform="translate(697.85,1008) scale(3.8770000000000002) rotate(0)"><path d="M10 5L5 0L0 5L5 10L0 15L5 20L10 15L15 20L20 15L15 10L20 5L15 0L10 5Z" fill="#49b467"/></g></g></svg>